<svg width="14" height="14" viewBox="0 0 14 14" fill="none" xmlns="http://www.w3.org/2000/svg">
<circle cx="7" cy="7" r="7" fill="#F8475F"/>
<path d="M9.01 8.96C9.41 8.96 9.61 9.13 9.61 9.47C9.61 9.82333 9.41 10 9.01 10H5.63C5.22333 10 5.02 9.82333 5.02 9.47C5.02 9.13 5.22333 8.96 5.63 8.96H6.67V4.4L5.71 4.99C5.61667 5.04333 5.53333 5.07 5.46 5.07C5.32 5.07 5.2 5.01 5.1 4.89C5.00667 4.77 4.96 4.63667 4.96 4.49C4.96 4.29667 5.04667 4.14667 5.22 4.04L6.77 3.08C6.97 2.96 7.16 2.9 7.34 2.9C7.52667 2.9 7.67667 2.95667 7.79 3.07C7.90333 3.18333 7.96 3.34 7.96 3.54V8.96H9.01Z" fill="white"/>
</svg>
