<svg width="1248" height="141" viewBox="0 0 1248 141" fill="none" xmlns="http://www.w3.org/2000/svg">
<path d="M8.88085 11.0047L17.111 2.77415C17.3376 2.54806 17.4623 2.24579 17.4623 1.92348C17.4623 1.60099 17.3376 1.29889 17.111 1.07246L16.3898 0.351642C16.1636 0.124846 15.8611 0 15.5388 0C15.2165 0 14.9144 0.124846 14.688 0.351642L4.88865 10.1508C4.66132 10.3779 4.53683 10.6814 4.53772 11.0041C4.53683 11.3282 4.66114 11.6314 4.88865 11.8587L14.6788 21.6484C14.9053 21.8752 15.2074 22 15.5299 22C15.8522 22 16.1543 21.8752 16.3809 21.6484L17.1019 20.9275C17.571 20.4584 17.571 19.6946 17.1019 19.2257L8.88085 11.0047Z" fill="black"/>
<path d="M1243.11 10.1416L1233.32 0.351461C1233.09 0.124845 1232.79 0 1232.47 0C1232.15 0 1231.85 0.124845 1231.62 0.351461L1230.9 1.07227C1230.43 1.54195 1230.43 2.30533 1230.9 2.7743L1239.12 10.9954L1230.89 19.2257C1230.66 19.4523 1230.54 19.7544 1230.54 20.0765C1230.54 20.399 1230.66 20.7011 1230.89 20.9279L1231.61 21.6485C1231.84 21.8752 1232.14 22 1232.46 22C1232.78 22 1233.09 21.8752 1233.31 21.6485L1243.11 11.8495C1243.34 11.6222 1243.46 11.3186 1243.46 10.996C1243.46 10.6721 1243.34 10.3687 1243.11 10.1416Z" fill="black"/>
</svg>
